<svg height="496pt" viewBox="0 0 496 496" width="496pt" xmlns="http://www.w3.org/2000/svg"><path d="m376 72v-64h-368v416h368zm0 0" fill="#e6e9ed"/><path d="m328 328v96h48v-368c-70.574219 0-128 57.425781-128 128 0 59.511719 40.886719 109.519531 96 123.785156v20.214844zm0 0" fill="#ccd1d9"/><path d="m360 280h32v80h-32zm0 0" fill="#ecc19c"/><path d="m488 184c0 61.855469-50.144531 112-112 112s-112-50.144531-112-112 50.144531-112 112-112 112 50.144531 112 112zm0 0" fill="#e6e9ed"/><path d="m456 184c0 44.183594-35.816406 80-80 80s-80-35.816406-80-80 35.816406-80 80-80 80 35.816406 80 80zm0 0" fill="#4fc1e9"/><path d="m40 296h112v96h-112zm0 0" fill="#fcd770"/><path d="m40 144h112v96h-112zm0 0" fill="#fcd770"/><path d="m360 328h32v16h-32zm0 0" fill="#dfb28b"/><path d="m376 488c-17.671875 0-32-14.328125-32-32v-112h64v112c0 17.671875-14.328125 32-32 32zm0 0" fill="#cf9e76"/><path d="m384 456c0 4.417969-3.582031 8-8 8s-8-3.582031-8-8 3.582031-8 8-8 8 3.582031 8 8zm0 0"/><path d="m496 184c0-63.472656-49.558594-115.449219-112-119.59375v-64.40625h-384v432h336v24c0 22.054688 17.945312 40 40 40s40-17.945312 40-40v-120h-16v-34.414062c54.703125-11.152344 96-59.632813 96-117.585938zm-16 0c0 57.34375-46.65625 104-104 104s-104-46.65625-104-104 46.65625-104 104-104 104 46.65625 104 104zm-144 152v80h-320v-400h352v48.40625c-62.441406 4.144531-112 56.121094-112 119.59375 0 57.953125 41.296875 106.433594 96 117.585938v34.414062zm64 120c0 13.230469-10.769531 24-24 24s-24-10.769531-24-24v-104h48zm-16-120h-16v-32.40625c2.65625.175781 5.296875.40625 8 .40625s5.34375-.230469 8-.40625zm0 0"/><path d="m288 184c0 48.519531 39.480469 88 88 88s88-39.480469 88-88-39.480469-88-88-88-88 39.480469-88 88zm160 0c0 39.703125-32.304688 72-72 72s-72-32.296875-72-72 32.304688-72 72-72 72 32.296875 72 72zm0 0"/><path d="m348.441406 201.34375-8.882812 13.3125 31.546875 21.023438 44.054687-88.105469-14.320312-7.148438-35.945313 71.894531zm0 0"/><path d="m143.382812 267.078125-14.765624-6.15625-11.28125 27.078125h-85.335938v112h128v-112h-25.335938zm.617188 36.921875v80h-96v-80h62.671875l-17.457031 41.894531-15.550782-15.550781-11.3125 11.3125 32.449219 32.449219 29.199219-70.105469zm0 0"/><path d="m143.382812 115.078125-14.765624-6.15625-11.28125 27.078125h-85.335938v112h128v-112h-25.335938zm.617188 36.921875v80h-96v-80h62.671875l-17.457031 41.894531-15.550782-15.550781-11.3125 11.3125 32.449219 32.449219 29.199219-70.105469zm0 0"/><path d="m224 64h16v16h-16zm0 0"/><path d="m32 64h176v16h-176zm0 0"/><path d="m176 288h96v16h-96zm0 0"/><path d="m176 320h96v16h-96zm0 0"/><path d="m176 352h96v16h-96zm0 0"/><path d="m176 384h96v16h-96zm0 0"/><path d="m176 136h64v16h-64zm0 0"/><path d="m176 168h64v16h-64zm0 0"/><path d="m176 200h64v16h-64zm0 0"/><path d="m176 232h64v16h-64zm0 0"/><path d="m32 32h208v16h-208zm0 0"/></svg>