<svg height="496pt" viewBox="0 0 496 496" width="496pt" xmlns="http://www.w3.org/2000/svg"><path d="m264 136v112c0 8.839844 7.160156 16 16 16h56v48l64-48h72c8.839844 0 16-7.160156 16-16v-112c0-8.839844-7.160156-16-16-16h-192c-8.839844 0-16 7.160156-16 16zm0 0" fill="#e6e9ed"/><path d="m40 120v-40c0-39.769531 32.230469-72 72-72s72 32.230469 72 72v40zm0 0" fill="#b27946"/><path d="m168 264h48v-32.191406c0-14.128906-9.273438-26.59375-22.808594-30.648438l-57.191406-17.160156v-16h-48v16l-57.191406 17.160156c-13.535156 4.054688-22.808594 16.519532-22.808594 30.648438v32.191406zm0 0" fill="#a0d468"/><path d="m136 184c0 13.257812-10.742188 24-24 24s-24-10.742188-24-24v-24h48zm0 0" fill="#f0d0b4"/><path d="m190.625 264-18.257812-18.257812c-8.734376-8.734376-20.824219-13.742188-33.175782-13.742188-10.933594 0-21.597656 3.855469-30.039062 10.871094l-20.230469 16.863281c-1.617187 1.34375-3.105469 2.792969-4.578125 4.257813h106.28125zm0 0" fill="#8cc152"/><path d="m263.199219 368c-5.871094 0-11.480469 2.433594-15.496094 6.710938l-15.3125 16.335937c-5.351563 5.714844-12.832031 8.953125-20.664063 8.953125-7.511718 0-14.710937-2.984375-20.023437-8.296875l-15.40625-15.40625c-5.3125-5.3125-8.296875-12.511719-8.296875-20.023437 0-7.832032 3.238281-15.304688 8.953125-20.664063l16.335937-15.3125c4.277344-4.015625 6.710938-9.625 6.710938-15.496094 0-5.632812-2.238281-11.03125-6.222656-15.015625l-32.722656-32.722656c-5.796876-5.804688-13.664063-9.0625-21.863282-9.0625-7.230468 0-14.238281 2.535156-19.792968 7.167969l-20.246094 16.871093c-12.136719 10.113282-19.152344 25.097657-19.152344 40.898438v.671875c0 9.421875 2.503906 18.679687 7.246094 26.824219 32.011718 54.863281 77.050781 100.980468 131.144531 134.269531l8.769531 5.402344c8.398438 5.160156 18.054688 7.894531 27.902344 7.894531 15.800781 0 30.785156-7.015625 40.898438-19.152344l16.871093-20.246094c4.632813-5.5625 7.167969-12.5625 7.167969-19.792968 0-8.199219-3.257812-16.066406-9.054688-21.863282l-32.722656-32.722656c-3.984375-3.984375-9.390625-6.222656-15.023437-6.222656zm0 0" fill="#e6e9ed"/><path d="m235.617188 387.617188-3.226563 3.4375c-5.351563 5.707031-12.832031 8.945312-20.664063 8.945312-7.511718 0-14.710937-2.984375-20.023437-8.296875l-15.40625-15.40625c-5.3125-5.3125-8.296875-12.511719-8.296875-20.023437 0-7.824219 3.238281-15.304688 8.953125-20.664063l3.4375-3.226563-69.839844-69.839843-11.390625 9.496093c-12.144531 10.113282-19.160156 25.097657-19.160156 40.898438v.671875c0 9.421875 2.503906 18.679687 7.246094 26.824219 32.011718 54.863281 77.050781 100.980468 131.144531 134.269531l8.769531 5.402344c8.398438 5.160156 18.054688 7.894531 27.902344 7.894531 15.800781 0 30.785156-7.015625 40.898438-19.152344l9.496093-11.390625zm0 0" fill="#ff826e"/><path d="m88 184c0 1.167969.183594 2.289062.34375 3.414062 7.328125 2.929688 15.296875 4.585938 23.65625 4.585938s16.328125-1.65625 23.65625-4.585938c.160156-1.125.34375-2.246093.34375-3.414062v-24h-48zm0 0" fill="#ecc19c"/><path d="m64 96v32c0 26.511719 21.488281 48 48 48s48-21.488281 48-48v-32zm0 0" fill="#f0d0b4"/><path d="m66.726562 144h-2.734374c-13.25 0-23.992188-10.742188-23.992188-23.992188 0-13.253906 10.742188-24.007812 24-24.007812h9.375c14.488281 0 28.386719-5.753906 38.625-16 10.246094 10.246094 24.136719 16 38.625 16h9.375c13.257812 0 24 10.742188 24 24s-10.742188 24-24 24zm0 0" fill="#f0d0b4"/><path d="m283.871094 368.566406c-5.519532-5.527344-12.863282-8.566406-20.671875-8.566406-8.054688 0-15.832031 3.367188-21.335938 9.238281l-15.3125 16.335938c-7.535156 8.035156-21.40625 8.257812-29.191406.472656l-15.40625-15.414063c-3.832031-3.832031-5.953125-8.9375-5.953125-14.359374 0-5.59375 2.34375-11 6.425781-14.824219l16.34375-15.320313c5.863281-5.503906 9.230469-13.28125 9.230469-21.328125 0-7.816406-3.039062-15.160156-8.558594-20.671875l-12.128906-12.128906h36.6875v-40.191406c0-17.808594-11.457031-33.199219-28.503906-38.3125l-51.496094-15.449219v-4.160156c8.007812-5.597657 14.457031-13.238281 18.648438-22.160157 16.390624-1.367187 29.351562-14.992187 29.351562-31.726562v-40c0-44.113281-35.886719-80-80-80s-80 35.886719-80 80v40 .007812c0 16.734376 12.960938 30.351563 29.351562 31.726563 4.191407 8.921875 10.640626 16.5625 18.648438 22.160156v4.160157l-51.496094 15.449218c-17.046875 5.105469-28.503906 20.496094-28.503906 38.304688v40.191406h87.792969c-10.082031 11.183594-15.792969 25.753906-15.792969 41.609375 0 10.832031 2.878906 21.503906 8.335938 30.847656 32.558593 55.808594 78.847656 103.199219 133.871093 137.0625l8.769531 5.390625c9.648438 5.945313 20.75 9.089844 32.09375 9.089844 18.226563 0 35.378907-8.03125 47.042969-22.03125l16.871094-20.257812c5.816406-6.976563 9.015625-15.824219 9.015625-24.902344 0-10.394532-4.046875-20.167969-11.398438-27.511719zm-91.871094-63.765625c0 3.648438-1.519531 7.167969-4.175781 9.664063l-7.25 6.800781-58.175781-58.175781 2.121093-1.769532c4.113281-3.433593 9.320313-5.320312 14.671875-5.320312 6.03125 0 11.9375 2.449219 16.199219 6.710938l32.730469 32.722656c2.503906 2.503906 3.878906 5.824218 3.878906 9.367187zm-24.328125-170.847656c.207031-1.960937.328125-3.945313.328125-5.953125v-21.777344c4.761719 2.777344 8 7.882813 8 13.777344 0 6.03125-3.390625 11.222656-8.328125 13.953125zm-55.671875-117.953125c35.289062 0 64 28.710938 64 64v12.449219c-4.726562-2.753907-10.144531-4.449219-16-4.449219h-9.375c-12.457031 0-24.167969-4.847656-32.96875-13.65625l-5.65625-5.664062-5.65625 5.664062c-8.808594 8.808594-20.511719 13.65625-32.96875 13.65625h-9.375c-5.855469 0-11.273438 1.695312-16 4.457031v-12.457031c0-35.289062 28.710938-64 64-64zm-64 104.007812c0-5.894531 3.238281-11 8-13.777343v21.769531c0 2.015625.121094 4 .328125 5.953125-4.9375-2.722656-8.328125-7.921875-8.328125-13.945313zm24 7.992188v-24h1.375c14.183594 0 27.648438-4.679688 38.625-13.320312 10.976562 8.640624 24.441406 13.320312 38.625 13.320312h1.375v24c0 22.054688-17.945312 40-40 40s-40-17.945312-40-40zm40 56c5.558594 0 10.929688-.839844 16-2.359375v2.359375c0 8.824219-7.175781 16-16 16s-16-7.175781-16-16v-2.359375c5.070312 1.519531 10.441406 2.359375 16 2.359375zm-96 47.808594c0-10.679688 6.871094-19.921875 17.105469-22.984375l48.71875-14.617188c4.289062 12.625 16.121093 21.792969 30.175781 21.792969s25.886719-9.167969 30.175781-21.792969l48.71875 14.617188c10.234375 3.0625 17.105469 12.304687 17.105469 22.984375v24.191406h-36.6875l-4.601562-4.601562c-7.238282-7.238282-17.269532-11.398438-27.519532-11.398438-9.078125 0-17.925781 3.199219-24.917968 9.015625l-8.371094 6.984375h-89.902344zm239.070312 248.191406c-8.382812 0-16.574218-2.320312-23.710937-6.710938l-8.765625-5.394531c-52.792969-32.488281-97.203125-77.957031-128.441406-131.496093-4.015625-6.902344-6.152344-14.78125-6.152344-23.460938 0-13.464844 5.929688-26.136719 16.28125-34.753906l5.773438-4.816406 59.097656 59.097656c-5.753906 6.574218-9.152344 15-9.152344 23.808594 0 9.703124 3.785156 18.824218 10.640625 25.679687l15.40625 15.414063c6.863281 6.855468 15.984375 10.632812 25.6875 10.632812 8.800781 0 17.226563-3.390625 23.800781-9.144531l59.097656 59.089843-4.816406 5.78125c-8.617187 10.34375-21.28125 16.273438-34.746094 16.273438zm51.617188-36.519531-1.777344 2.121093-58.167968-58.167968 6.792968-7.25c4.90625-5.230469 13.9375-5.390625 19.023438-.304688l32.730468 32.722656c4.328126 4.328126 6.710938 10.078126 6.710938 16.207032 0 5.34375-1.878906 10.550781-5.3125 14.671875zm0 0"/><path d="m376 144c-13.230469 0-24 10.769531-24 24v8h16v-8c0-4.40625 3.585938-8 8-8s8 3.59375 8 8v1.367188c0 2.136718-.832031 4.152343-2.34375 5.664062l-13.65625 13.65625v19.3125h16v-12.6875l8.96875-8.96875c4.535156-4.527344 7.03125-10.558594 7.03125-16.976562v-1.367188c0-13.230469-10.769531-24-24-24zm0 0"/><path d="m368 224h16v16h-16zm0 0"/><path d="m472 112h-192c-13.230469 0-24 10.769531-24 24v112c0 13.230469 10.769531 24 24 24h48v56l74.664062-56h69.335938c13.230469 0 24-10.769531 24-24v-112c0-13.230469-10.769531-24-24-24zm8 136c0 4.40625-3.585938 8-8 8h-74.664062l-53.335938 40v-40h-64c-4.414062 0-8-3.59375-8-8v-112c0-4.40625 3.585938-8 8-8h192c4.414062 0 8 3.59375 8 8zm0 0"/></svg>