<?xml version="1.0" encoding="iso-8859-1"?>
<!-- Generator: Adobe Illustrator 19.0.0, SVG Export Plug-In . SVG Version: 6.00 Build 0)  -->
<svg version="1.1" id="Capa_1" xmlns="http://www.w3.org/2000/svg" xmlns:xlink="http://www.w3.org/1999/xlink" x="0px" y="0px"
	 viewBox="0 0 512 512" style="enable-background:new 0 0 512 512;" xml:space="preserve">
<path style="fill:#CCCCCC;" d="M417.463,66.973l-30.604,378.013h-55.542c0,0-0.696-36.607-17.687-64.316
	c-2.782-4.618-6.361-8.335-10.732-10.813c-12.321-7.208-32.293-9.518-46.899-9.518c-14.606,0-34.578,2.309-46.899,9.518
	c-4.371,2.478-7.949,6.196-10.732,10.813c-16.991,27.709-17.687,64.316-17.687,64.316H125.14L94.536,66.973h40.541
	c17.884,103.739,31.696,158.594,55.741,203.649c5.167,9.687,13.813,16.445,23.649,18.248c13.412,2.365,26.346,2.732,41.533,2.732
	c15.186,0,28.12-0.367,41.533-2.732c9.837-1.803,18.482-8.561,23.649-18.248c24.045-45.055,37.856-99.91,55.741-203.649
	C376.923,66.973,417.463,66.973,417.463,66.973z"/>
<path style="fill:#8C8C8C;" d="M231.643,360.338c-14.606,0-34.578,2.309-46.899,9.518c-4.371,2.478-7.949,6.196-10.732,10.813
	c-16.991,27.709-17.687,64.316-17.687,64.316h24.356c0,0,0.696-36.607,17.687-64.316c2.782-4.618,6.361-8.335,10.732-10.813
	c9.136-5.345,22.478-7.993,34.721-9.006C239.554,360.497,235.418,360.338,231.643,360.338z"/>
<path style="fill:#A6A6A6;" d="M190.111,288.87c13.412,2.365,26.346,2.732,41.533,2.732c4.217,0,8.249-0.035,12.178-0.127
	c-10.217-0.238-19.667-0.897-29.355-2.605c-9.837-1.803-18.482-8.561-23.649-18.248c-24.045-45.055-37.856-99.91-55.741-203.649
	H110.72c17.884,103.739,31.696,158.594,55.741,203.649C171.628,280.309,180.274,287.067,190.111,288.87z"/>
<polygon style="fill:#8C8C8C;" points="393.107,66.973 362.503,444.986 386.858,444.986 417.463,66.973 "/>
<path style="fill:#CCCCCC;" d="M379.153,30H134.841C0.264,30-1.589,72.141,0.336,123.414l10.332,274.818
	C12.418,444.77,47.644,482,89.365,482h333.269c41.72,0,76.947-37.23,78.697-83.768l10.332-274.818
	C513.587,72.141,511.735,30,379.153,30z M471.949,121.627l-10.332,274.818c-0.864,23.187-18.359,42.058-38.983,42.058H89.365
	c-20.624,0-38.119-18.872-38.983-42.058L40.049,121.627c-0.525-13.9,3.664-26.659,11.773-35.915
	c4.888-5.568,13.337-12.205,25.851-12.205h356.651c12.514,0,20.963,6.637,25.851,12.205
	C468.285,94.968,472.474,107.727,471.949,121.627z"/>
<path style="fill:#A6A6A6;" d="M77.674,73.507H54.347c-12.514,0-20.963,6.637-25.851,12.205
	c-8.109,9.256-12.298,22.015-11.773,35.915l10.332,274.818c0.864,23.187,18.359,42.058,38.983,42.058h23.327
	c-20.624,0-38.119-18.872-38.983-42.058L40.049,121.627c-0.525-13.9,3.664-26.659,11.773-35.915
	C56.711,80.144,65.16,73.507,77.674,73.507z"/>
<path style="fill:#8C8C8C;" d="M379.153,30h-23.327c132.581,0,134.434,42.141,132.509,93.414l-10.332,274.818
	C476.254,444.77,441.027,482,399.307,482h23.327c41.72,0,76.947-37.23,78.697-83.768l10.332-274.818
	C513.587,72.141,511.735,30,379.153,30z"/>
<g>
</g>
<g>
</g>
<g>
</g>
<g>
</g>
<g>
</g>
<g>
</g>
<g>
</g>
<g>
</g>
<g>
</g>
<g>
</g>
<g>
</g>
<g>
</g>
<g>
</g>
<g>
</g>
<g>
</g>
</svg>
