<svg height="468pt" viewBox="-2 0 468 468.23986" width="468pt" xmlns="http://www.w3.org/2000/svg"><path d="m227.195312 241.167969c-43.742187-43.742188-43.742187-114.660157 0-158.402344 43.738282-43.742187 114.65625-43.742187 158.398438 0l33.921875-33.917969c-40.175781-41.59375-99.664063-58.277344-155.601563-43.632812-55.941406 14.640625-99.628906 58.328125-114.273437 114.269531-14.640625 55.941406 2.039063 115.429687 43.632813 155.601563zm0 0" fill="#27aae1"/><path d="m385.59375 82.765625c43.742188 43.742187 43.742188 114.660156 0 158.402344-43.742188 43.738281-114.660156 43.738281-158.398438 0l-33.921874 33.917969c62.78125 60.636718 162.574218 59.769531 224.292968-1.949219 61.714844-61.71875 62.582032-161.511719 1.949219-224.289063zm0 0" fill="#3fb3e4"/><path d="m227.195312 82.765625c-43.679687 43.765625-43.679687 114.632813 0 158.402344l158.398438-158.402344c-43.765625-43.675781-114.632812-43.675781-158.398438 0zm0 0" fill="#f1f2f2"/><path d="m385.59375 241.167969c43.679688-43.769531 43.679688-114.636719 0-158.402344l-158.398438 158.402344c43.765626 43.675781 114.632813 43.675781 158.398438 0zm0 0" fill="#f6f6f6"/><path d="m159.3125 309.046875 22.601562 22.597656 36.238282-36.160156c-8.949219-5.953125-17.285156-12.785156-24.878906-20.398437zm0 0" fill="#b5b4ba"/><path d="m193.273438 275.085938c-7.613282-7.59375-14.445313-15.925782-20.398438-24.878907l-36.160156 36.238281 22.597656 22.601563zm0 0" fill="#acabb1"/><path d="m159.3125 309.046875-145.136719 145.136719c18.746094 18.742187 49.136719 18.742187 67.882813 0l111.199218-111.203125-11.34375-11.335938zm0 0" fill="#ff7358"/><path d="m136.714844 286.445312-11.335938-11.34375-111.203125 111.199219c-18.742187 18.746094-18.742187 49.136719 0 67.882813l145.136719-145.136719zm0 0" fill="#ff6243"/></svg>