<?xml version="1.0" encoding="iso-8859-1"?>
<!-- Generator: Adobe Illustrator 19.0.0, SVG Export Plug-In . SVG Version: 6.00 Build 0)  -->
<svg version="1.1" id="Capa_1" xmlns="http://www.w3.org/2000/svg" xmlns:xlink="http://www.w3.org/1999/xlink" x="0px" y="0px"
	 viewBox="0 0 512 512" style="enable-background:new 0 0 512 512;" xml:space="preserve">
<g>
	<path style="fill:#E82934;" d="M340.455,174.743l-80.916,136.366c-1.615,2.721-5.554,2.72-7.168-0.002l-80.83-136.366
		c-0.776-1.309-0.776-2.938-0.001-4.247l80.83-136.452c1.613-2.723,5.554-2.724,7.169-0.002l80.916,136.452
		C341.232,171.803,341.232,173.433,340.455,174.743z"/>
	<path style="fill:#E82934;" d="M162.746,479.995L4.164,479.677c-3.16-0.006-5.163-3.39-3.648-6.163L76.62,334.177
		c0.731-1.339,2.136-2.171,3.662-2.169l158.612,0.199c3.161,0.004,5.166,3.388,3.652,6.162l-76.134,139.456
		C165.68,479.165,164.273,479.998,162.746,479.995z"/>
	<path style="fill:#E82934;" d="M507.83,479.677l-26.072,0.052L349.255,480c-1.531,0-2.937-0.833-3.667-2.177l-76.132-139.455
		c-1.521-2.77,0.49-6.155,3.646-6.166l133.056-0.167l25.561-0.031c1.521,0,2.927,0.833,3.656,2.177l76.111,139.33
		C512.997,476.292,510.997,479.667,507.83,479.677z"/>
</g>
<g>
	<path style="fill:#C7232C;" d="M507.83,479.677l-26.072,0.052l0.031-0.052c3.167-0.01,5.166-3.385,3.656-6.166l-76.111-139.33
		c-0.656-1.198-1.844-1.989-3.177-2.145l25.561-0.031c1.521,0,2.927,0.833,3.656,2.177l76.111,139.33
		C512.997,476.292,510.997,479.667,507.83,479.677z"/>
	<path style="fill:#C7232C;" d="M238.893,332.207l-158.612-0.199c-0.165,0-0.327,0.014-0.487,0.033l132.712,0.167
		c3.161,0.004,5.166,3.388,3.652,6.162l-76.134,139.456c-0.629,1.151-1.756,1.924-3.03,2.118l25.752,0.052
		c1.527,0.003,2.934-0.83,3.665-2.17l76.134-139.456C244.06,335.595,242.054,332.211,238.893,332.207z"/>
	<path style="fill:#C7232C;" d="M313.894,170.493c0.777,1.31,0.777,2.94-0.001,4.25L242.68,294.758l9.691,16.35
		c1.613,2.722,5.553,2.723,7.167,0.002l80.916-136.366c0.777-1.31,0.778-2.94,0.001-4.25L259.539,34.041
		c-1.614-2.722-5.556-2.722-7.169,0.002l-9.691,16.359L313.894,170.493z"/>
</g>
<g>
</g>
<g>
</g>
<g>
</g>
<g>
</g>
<g>
</g>
<g>
</g>
<g>
</g>
<g>
</g>
<g>
</g>
<g>
</g>
<g>
</g>
<g>
</g>
<g>
</g>
<g>
</g>
<g>
</g>
</svg>
