<svg height="496pt" viewBox="-4 0 496 496" width="496pt" xmlns="http://www.w3.org/2000/svg"><path d="m56 40h-32c-8.839844 0-16 7.160156-16 16v288c0 8.839844 7.160156 16 16 16h368v-304c0-8.839844-7.160156-16-16-16zm0 0" fill="#e6e9ed"/><g fill="#b4dd7f"><path d="m256 144h32v32h-32zm0 0"/><path d="m304 144h32v32h-32zm0 0"/><path d="m256 192h32v32h-32zm0 0"/><path d="m256 240h32v32h-32zm0 0"/><path d="m256 288h32v32h-32zm0 0"/><path d="m304 288h32v32h-32zm0 0"/></g><path d="m322.167969 338.046875c-10.113281 5.777344-18.816407 13.328125-26.160157 21.953125h95.992188v-208h-112c-13.230469 0-24 10.769531-24 24v16c0 10.414062 6.710938 19.214844 16 22.527344v16.976562c0 35.640625 19.222656 68.769532 50.167969 86.457032 3.601562 2.046874 5.832031 5.894531 5.832031 10.039062s-2.230469 7.992188-5.832031 10.046875zm0 0" fill="#ccd1d9"/><path d="m256 288h32v32h-32zm0 0" fill="#a0d468"/><path d="m288 152h-8c-13.230469 0-24 10.769531-24 24h32zm0 0" fill="#a0d468"/><path d="m304 152h32v24h-32zm0 0" fill="#a0d468"/><path d="m288 192h-32c0 10.414062 6.710938 19.214844 16 22.527344v9.472656h16zm0 0" fill="#a0d468"/><path d="m288 240h-15.433594c.96875 11.167969 3.730469 21.960938 8.21875 32h7.214844zm0 0" fill="#a0d468"/><path d="m336 288h-32v16.375c5.503906 5.113281 11.503906 9.761719 18.167969 13.578125.96875.550781 1.816406 1.253906 2.574219 2.046875h11.257812zm0 0" fill="#a0d468"/><path d="m376 40h-352c-8.839844 0-16 7.160156-16 16v48h384v-48c0-8.839844-7.160156-16-16-16zm0 0" fill="#ff826e"/><path d="m472 200h-192c-4.414062 0-8-3.585938-8-8v-16c0-4.414062 3.585938-8 8-8h192c4.414062 0 8 3.585938 8 8v16c0 4.414062-3.585938 8-8 8zm0 0" fill="#cf9e76"/><path d="m464 200v31.503906c0 29.992188-16.070312 57.679688-42.113281 72.558594-8.582031 4.90625-13.886719 14.042969-13.886719 23.9375s5.304688 19.03125 13.886719 23.9375c26.042969 14.878906 42.113281 42.566406 42.113281 72.558594v31.503906h-176v-31.503906c0-29.992188 16.070312-57.679688 42.113281-72.558594 8.582031-4.90625 13.886719-14.042969 13.886719-23.9375s-5.304688-19.03125-13.886719-23.9375c-26.042969-14.878906-42.113281-42.574219-42.113281-72.558594v-31.503906zm0 0" fill="#e6e9ed"/><path d="m288 456 31.703125-27.175781c15.679687-13.441407 35.648437-20.824219 56.296875-20.824219s40.617188 7.382812 56.296875 20.824219l31.703125 27.175781zm0 0" fill="#fcd770"/><path d="m80 72h-16c-4.414062 0-8-3.585938-8-8v-48c0-4.414062 3.585938-8 8-8h16c4.414062 0 8 3.585938 8 8v48c0 4.414062-3.585938 8-8 8zm0 0" fill="#e6e9ed"/><path d="m144 72h-16c-4.414062 0-8-3.585938-8-8v-48c0-4.414062 3.585938-8 8-8h16c4.414062 0 8 3.585938 8 8v48c0 4.414062-3.585938 8-8 8zm0 0" fill="#e6e9ed"/><path d="m208 72h-16c-4.414062 0-8-3.585938-8-8v-48c0-4.414062 3.585938-8 8-8h16c4.414062 0 8 3.585938 8 8v48c0 4.414062-3.585938 8-8 8zm0 0" fill="#e6e9ed"/><path d="m272 72h-16c-4.414062 0-8-3.585938-8-8v-48c0-4.414062 3.585938-8 8-8h16c4.414062 0 8 3.585938 8 8v48c0 4.414062-3.585938 8-8 8zm0 0" fill="#e6e9ed"/><path d="m336 72h-16c-4.414062 0-8-3.585938-8-8v-48c0-4.414062 3.585938-8 8-8h16c4.414062 0 8 3.585938 8 8v48c0 4.414062-3.585938 8-8 8zm0 0" fill="#e6e9ed"/><path d="m288 200v31.503906c0 2.128906.265625 4.214844.425781 6.320313 11.4375 9.214843 16.597657 26.175781 35.527344 26.175781 26 0 26-32 51.992187-32 26.015626 0 26.015626 32 52.03125 32 18.96875 0 24.128907-16.984375 35.609376-26.199219.148437-2.097656.414062-4.175781.414062-6.296875v-31.503906zm0 0" fill="#fcd770"/><path d="m472 488h-192c-4.414062 0-8-3.585938-8-8v-16c0-4.414062 3.585938-8 8-8h192c4.414062 0 8 3.585938 8 8v16c0 4.414062-3.585938 8-8 8zm0 0" fill="#cf9e76"/><path d="m64 288h32v32h-32zm0 0" fill="#b4dd7f"/><path d="m306.664062 440-18.664062 16h176l-18.664062-16zm0 0" fill="#ffc729"/><path d="m288 200h176v16h-176zm0 0" fill="#ffc729"/><path d="m64 144h32v32h-32zm0 0" fill="#b4dd7f"/><path d="m112 144h32v32h-32zm0 0" fill="#b4dd7f"/><path d="m160 144h32v32h-32zm0 0" fill="#b4dd7f"/><path d="m208 144h32v32h-32zm0 0" fill="#b4dd7f"/><path d="m72 280h16v80h-16zm0 0" fill="#ccd1d9"/><path d="m64 192h32v32h-32zm0 0" fill="#b4dd7f"/><path d="m112 192h32v32h-32zm0 0" fill="#b4dd7f"/><path d="m160 192h32v32h-32zm0 0" fill="#b4dd7f"/><path d="m64 288h24v32h-24zm0 0" fill="#a0d468"/><path d="m208 192h32v32h-32zm0 0" fill="#b4dd7f"/><path d="m64 240h32v32h-32zm0 0" fill="#b4dd7f"/><path d="m112 240h32v32h-32zm0 0" fill="#b4dd7f"/><path d="m160 240h32v32h-32zm0 0" fill="#b4dd7f"/><path d="m208 240h32v32h-32zm0 0" fill="#b4dd7f"/><path d="m72 360-64-80h64zm0 0" fill="#aab2bd"/><path d="m112 288h32v32h-32zm0 0" fill="#b4dd7f"/><path d="m160 288h32v32h-32zm0 0" fill="#b4dd7f"/><path d="m208 288h32v32h-32zm0 0" fill="#b4dd7f"/><path d="m425.855469 311.007812c28.464843-16.265624 46.144531-46.726562 46.144531-79.503906v-23.503906c8.824219 0 16-7.175781 16-16v-16c0-8.824219-7.175781-16-16-16h-72v-104c0-13.230469-10.769531-24-24-24h-24v-16c0-8.824219-7.175781-16-16-16h-16c-8.824219 0-16 7.175781-16 16v16h-16v-16c0-8.824219-7.175781-16-16-16h-16c-8.824219 0-16 7.175781-16 16v16h-16v-16c0-8.824219-7.175781-16-16-16h-16c-8.824219 0-16 7.175781-16 16v16h-16v-16c0-8.824219-7.175781-16-16-16h-16c-8.824219 0-16 7.175781-16 16v16h-16v-16c0-8.824219-7.175781-16-16-16h-16c-8.824219 0-16 7.175781-16 16v16h-24c-13.230469 0-24 10.769531-24 24v288c0 13.230469 10.769531 24 24 24h275.609375c-12.457031 15.894531-19.609375 35.71875-19.609375 56.496094v23.503906c-8.824219 0-16 7.175781-16 16v16c0 8.824219 7.175781 16 16 16h192c8.824219 0 16-7.175781 16-16v-16c0-8.824219-7.175781-16-16-16v-23.503906c0-32.777344-17.679688-63.238282-46.144531-79.503906-6.070313-3.480469-9.855469-9.984376-9.855469-16.992188s3.785156-13.511719 9.855469-16.992188zm30.144531-79.503906c0 .894532-.144531 1.761719-.175781 2.648438-2.945313 2.816406-5.601563 5.792968-8.039063 8.800781-6.777344 8.335937-11.042968 13.046875-19.816406 13.046875-8.777344 0-13.03125-4.710938-19.808594-13.046875-6.863281-8.449219-15.398437-18.953125-32.214844-18.953125-16.808593 0-25.34375 10.511719-32.210937 18.960938-6.765625 8.328124-11.023437 13.039062-19.789063 13.039062-8.753906 0-13-4.710938-19.769531-13.039062-2.472656-3.050782-5.023437-6.152344-8.015625-8.992188-.023437-.832031-.160156-1.632812-.160156-2.464844v-23.503906h160zm-140.320312 120.496094h-235.679688v-16h254.113281c-1.671875 3.695312-4.34375 6.921875-7.96875 8.992188-3.679687 2.105468-7.160156 4.457031-10.464843 7.007812zm20.320312-192h-32v-16h32zm-48 0h-8c-8.824219 0-16 7.175781-16 16h-8v-32h32zm-32 160v-32h32v32zm-176-32h16v32h-16zm32 0h32v32h-32zm96-48h32v32h-32zm-16 32h-32v-32h32zm16-48v-32h32v32zm-16 0h-32v-32h32zm-48 0h-32v-32h32zm0 16v32h-32v-32zm16 48h32v32h-32zm48 0h32v32h-32zm48-16v-32h24.566406c1.058594 11.265625 4.203125 22.054688 9.121094 32zm24-48h-24v-32h8c0 8.824219 7.175781 16 16 16zm-40-48h-32v-32h32zm-48 0h-32v-32h32zm-48 0h-32v-32h32zm-48 0h-32v-32h32zm-32 16h32v32h-32zm0 48h32v32h-32zm0 48v49.183594l-39.351562-49.183594zm240 32v-27c6.359375 7 13.703125 13.183594 22.144531 18.007812 3.625 2.070313 6.296875 5.296876 7.96875 8.992188zm168.007812-128h-192.007812v-16h192zm-120.007812-32v-32h-304v144h-32v-160h368v48zm-32-144h16l.007812 48h-16.007812zm-64 0h16l.007812 48h-16.007812zm-64 0h16l.007812 48h-16.007812zm-64 0h16l.007812 48h-16.007812zm-64 0h16l.007812 48h-16.007812zm-40 32h24v16c0 8.824219 7.175781 16 16 16h16c8.824219 0 16-7.175781 16-16v-16h16v16c0 8.824219 7.175781 16 16 16h16c8.824219 0 16-7.175781 16-16v-16h16v16c0 8.824219 7.175781 16 16 16h16c8.824219 0 16-7.175781 16-16v-16h16v16c0 8.824219 7.175781 16 16 16h16c8.824219 0 16-7.175781 16-16v-16h16v16c0 8.824219 7.175781 16 16 16h16c8.824219 0 16-7.175781 16-16v-16h24c4.414062 0 8 3.59375 8 8v40h-368v-40c0-4.40625 3.585938-8 8-8zm-8 296v-41.183594l39.351562 49.183594h-31.351562c-4.414062 0-8-3.585938-8-8zm456.015625 136h-192.015625v-16h192zm-162.382813-32 15.277344-13.097656c14.226563-12.191406 32.363282-18.902344 51.089844-18.902344s36.863281 6.710938 51.097656 18.902344l15.269532 13.097656zm90.367188-120c0 12.734375 6.863281 24.566406 17.921875 30.878906 23.484375 13.425782 38.078125 38.570313 38.078125 65.617188v14.105468l-18.496094-15.859374c-17.121094-14.664063-38.96875-22.742188-61.503906-22.742188s-44.382812 8.078125-61.503906 22.753906l-18.496094 15.855469v-14.105469c0-27.046875 14.59375-52.191406 38.078125-65.617187 11.058594-6.320313 17.921875-18.152344 17.921875-30.886719s-6.863281-24.566406-17.921875-30.878906c-12.910156-7.378906-23-18.367188-29.582031-31.199219 5.023437 3.550781 11.238281 6.078125 19.449218 6.078125 16.808594 0 25.34375-10.503906 32.207032-18.960938 6.769531-8.328124 11.023437-13.039062 19.792968-13.039062 8.765626 0 13.03125 4.710938 19.796876 13.039062 6.867187 8.449219 15.417968 18.960938 32.226562 18.960938 8.261719 0 14.511719-2.550781 19.558594-6.136719-6.589844 12.855469-16.6875 23.863281-29.605469 31.25-11.058594 6.320313-17.921875 18.152344-17.921875 30.886719zm0 0"/><path d="m368 368h16v16h-16zm0 0"/><path d="m368 336h16v16h-16zm0 0"/><path d="m368 304h16v16h-16zm0 0"/><path d="m368 272h16v16h-16zm0 0"/></svg>