<svg height="464pt" viewBox="0 0 464 464" width="464pt" xmlns="http://www.w3.org/2000/svg"><path d="m304 376v-48h-224l-32 48zm0 0" fill="#d6d8d9"/><path d="m48 376 32 48h224v-48zm0 0" fill="#d1d3d4"/><path d="m0 376 32 48h48l-32-48zm0 0" fill="#ffcd00"/><path d="m80 328h-48l-32 48h48zm0 0" fill="#ffd31c"/><path d="m128 280h256l32-48h-288zm0 0" fill="#d1d3d4"/><path d="m248 184h-120v48h288l-32-48zm0 0" fill="#d6d8d9"/><path d="m0 88 32 48h48l-32-48zm0 0" fill="#ffcd00"/><path d="m80 40h-48l-32 48h48zm0 0" fill="#ffd31c"/><path d="m48 88 32 48h224v-48zm0 0" fill="#d1d3d4"/><path d="m304 88v-48h-224l-32 48zm0 0" fill="#d6d8d9"/><g fill="#414042"><path d="m248 16c0-8.835938-7.164062-16-16-16s-16 7.164062-16 16v24h32zm0 0"/><path d="m216 136h32v48h-32zm0 0"/><path d="m216 280h32v48h-32zm0 0"/><path d="m216 424h32v40h-32zm0 0"/></g><path d="m96 88c0 4.417969 3.582031 8 8 8h152c4.417969 0 8-3.582031 8-8s-3.582031-8-8-8h-152c-4.417969 0-8 3.582031-8 8zm0 0" fill="#f1f2f2"/><path d="m96 376c0 4.417969 3.582031 8 8 8h152c4.417969 0 8-3.582031 8-8s-3.582031-8-8-8h-152c-4.417969 0-8 3.582031-8 8zm0 0" fill="#f1f2f2"/><path d="m336 232c0-4.417969-3.582031-8-8-8h-152c-4.417969 0-8 3.582031-8 8s3.582031 8 8 8h152c4.417969 0 8-3.582031 8-8zm0 0" fill="#f1f2f2"/><path d="m360 240h16c4.417969 0 8-3.582031 8-8s-3.582031-8-8-8h-16c-4.417969 0-8 3.582031-8 8s3.582031 8 8 8zm0 0" fill="#f1f2f2"/><path d="m384 184 32 48h48l-32-48zm0 0" fill="#ffd31c"/><path d="m384 280h48l32-48h-48zm0 0" fill="#ffcd00"/></svg>